<?xml version="1.0" encoding="UTF-8" standalone="no"?>
<!DOCTYPE svg PUBLIC "-//W3C//DTD SVG 1.1//EN" "http://www.w3.org/Graphics/SVG/1.1/DTD/svg11.dtd">
<svg width="100%" height="100%" viewBox="0 0 146 147" version="1.1" xmlns="http://www.w3.org/2000/svg" xmlns:xlink="http://www.w3.org/1999/xlink" xml:space="preserve" xmlns:serif="http://www.serif.com/" style="fill-rule:evenodd;clip-rule:evenodd;stroke-linejoin:round;stroke-miterlimit:2;">
    <g transform="matrix(1,0,0,1,-2405.969456,-1122.903694)">
        <g transform="matrix(1,0,0,2.337598,576,0)">
            <g transform="matrix(1,0,0,0.42779,1282.969456,144.551657)">
                <path d="M547,840L630,785L688,842L693,900L669,921L581,932" style="fill:rgb(183,71,239);"/>
            </g>
        </g>
        <g transform="matrix(1,0,0,2.337598,576,0)">
            <g id="g129-5-6-1" transform="matrix(3.047355,0,0,1.303627,1861.11853,282.497576)">
                <path id="path103-9-1-7" d="M16.729,182.334C20.539,181.094 23.432,178.655 25.101,175.278C27.343,170.741 26.214,165.284 22.37,162.08C19.752,159.897 17.023,158.975 13.267,159.003C7.642,159.046 2.866,161.907 0.543,166.625C-0.326,168.389 -0.359,168.569 -0.359,171.518C-0.359,174.485 -0.33,174.636 0.553,176.378C2.049,179.324 4.872,181.556 8.252,182.465C10.493,183.067 14.678,183.002 16.729,182.334Z" style="fill:white;fill-rule:nonzero;"/>
                <path id="path102-8-5-7" d="M29.885,190.189C31.706,189.248 33.074,186.643 33.094,184.078C33.104,182.796 32.959,182.235 32.343,181.167C31.923,180.44 31.299,179.585 30.956,179.269C30.05,178.432 27.655,177.294 26.466,177.135L25.438,176.997L25.438,180.232L24.127,180.897C20.487,182.741 20.409,188.147 23.992,190.241C24.906,190.775 25.3,190.838 27.051,190.735C28.157,190.669 29.432,190.424 29.885,190.189Z" style="fill:white;fill-rule:nonzero;"/>
                <path id="path101-4-4-7" d="M21.613,195.314L23.057,194.248L23.057,190.14L21.771,189.159C21.064,188.62 20.347,188.179 20.177,188.179C20.007,188.179 19.298,188.605 18.601,189.125L17.333,190.071L17.294,191.97C17.273,193.014 17.342,194.007 17.447,194.177C17.614,194.449 19.888,196.332 20.092,196.367C20.134,196.374 20.819,195.901 21.613,195.314L21.613,195.314Z" style="fill:white;fill-rule:nonzero;"/>
                <path id="path100-0-2-73" d="M11.858,197.027C13.739,196.492 15.037,195.327 16.044,193.269C16.698,191.935 16.757,191.578 16.654,189.61C16.522,187.093 15.999,186.166 13.948,184.807C11.939,183.477 8.646,183.454 6.85,184.757C6.32,185.142 5.996,185.217 5.659,185.034C4.811,184.572 3.533,183.033 2.944,181.763C2.623,181.071 2.225,180.507 2.059,180.508C1.173,180.513 -0.097,183.592 -0.38,186.42C-0.713,189.755 1.126,194.132 3.529,195.722C5.95,197.324 9.086,197.816 11.858,197.027L11.858,197.027Z" style="fill:white;fill-rule:nonzero;"/>
            </g>
        </g>
        <g transform="matrix(1,0,0,2.337598,576,0)">
            <g id="path113-1" transform="matrix(2.943961,0,0,1.259395,1202.972941,393.957623)">
                <path d="M235.112,98.48C233.534,98.056 232.794,97.437 232.127,95.984C231.32,94.228 231.591,92.493 232.831,91.464C233.644,90.789 235.629,90.611 237.503,91.046C238.466,91.269 239.431,91.384 239.647,91.301C239.863,91.219 240.311,90.667 240.644,90.075C242.211,87.288 245.27,87.015 246.293,89.572C247.046,91.454 246.862,92.824 245.601,94.712C244.665,96.113 244.205,96.517 242.785,97.185C241.077,97.989 237.938,98.884 236.949,98.85C236.657,98.84 235.83,98.673 235.112,98.48ZM242.238,96.327C243.023,95.46 243.183,94.538 242.735,93.466C242.236,92.273 241.189,91.846 239.787,92.264C238.604,92.616 238.203,93.209 238.203,94.605C238.203,95.986 239.192,96.945 240.615,96.945C241.369,96.945 241.842,96.766 242.238,96.327Z" style="fill:rgb(183,71,239);fill-rule:nonzero;"/>
            </g>
        </g>
    </g>
</svg>
