<?xml version="1.0" encoding="UTF-8" standalone="no"?>
<!DOCTYPE svg PUBLIC "-//W3C//DTD SVG 1.1//EN" "http://www.w3.org/Graphics/SVG/1.1/DTD/svg11.dtd">
<svg width="100%" height="100%" viewBox="0 0 449 147" version="1.1" xmlns="http://www.w3.org/2000/svg" xmlns:xlink="http://www.w3.org/1999/xlink" xml:space="preserve" xmlns:serif="http://www.serif.com/" style="fill-rule:evenodd;clip-rule:evenodd;stroke-linejoin:round;stroke-miterlimit:2;">
    <g transform="matrix(1,0,0,1,-2405.969456,-1122.903694)">
        <g transform="matrix(1,0,0,2.337598,576,0)">
            <g transform="matrix(1,0,0,0.42779,1282.969456,144.551657)">
                <path d="M547,840L630,785L688,842L693,900L669,921L581,932" style="fill:rgb(183,71,239);"/>
            </g>
        </g>
        <g transform="matrix(1,0,0,2.337598,576,0)">
            <g id="g129-5-6-1" transform="matrix(3.047355,0,0,1.303627,1861.11853,282.497576)">
                <path id="path103-9-1-7" d="M16.729,182.334C20.539,181.094 23.432,178.655 25.101,175.278C27.343,170.741 26.214,165.284 22.37,162.08C19.752,159.897 17.023,158.975 13.267,159.003C7.642,159.046 2.866,161.907 0.543,166.625C-0.326,168.389 -0.359,168.569 -0.359,171.518C-0.359,174.485 -0.33,174.636 0.553,176.378C2.049,179.324 4.872,181.556 8.252,182.465C10.493,183.067 14.678,183.002 16.729,182.334Z" style="fill:white;fill-rule:nonzero;"/>
                <path id="path102-8-5-7" d="M29.885,190.189C31.706,189.248 33.074,186.643 33.094,184.078C33.104,182.796 32.959,182.235 32.343,181.167C31.923,180.44 31.299,179.585 30.956,179.269C30.05,178.432 27.655,177.294 26.466,177.135L25.438,176.997L25.438,180.232L24.127,180.897C20.487,182.741 20.409,188.147 23.992,190.241C24.906,190.775 25.3,190.838 27.051,190.735C28.157,190.669 29.432,190.424 29.885,190.189Z" style="fill:white;fill-rule:nonzero;"/>
                <path id="path101-4-4-7" d="M21.613,195.314L23.057,194.248L23.057,190.14L21.771,189.159C21.064,188.62 20.347,188.179 20.177,188.179C20.007,188.179 19.298,188.605 18.601,189.125L17.333,190.071L17.294,191.97C17.273,193.014 17.342,194.007 17.447,194.177C17.614,194.449 19.888,196.332 20.092,196.367C20.134,196.374 20.819,195.901 21.613,195.314L21.613,195.314Z" style="fill:white;fill-rule:nonzero;"/>
                <path id="path100-0-2-73" d="M11.858,197.027C13.739,196.492 15.037,195.327 16.044,193.269C16.698,191.935 16.757,191.578 16.654,189.61C16.522,187.093 15.999,186.166 13.948,184.807C11.939,183.477 8.646,183.454 6.85,184.757C6.32,185.142 5.996,185.217 5.659,185.034C4.811,184.572 3.533,183.033 2.944,181.763C2.623,181.071 2.225,180.507 2.059,180.508C1.173,180.513 -0.097,183.592 -0.38,186.42C-0.713,189.755 1.126,194.132 3.529,195.722C5.95,197.324 9.086,197.816 11.858,197.027L11.858,197.027Z" style="fill:white;fill-rule:nonzero;"/>
            </g>
        </g>
        <g transform="matrix(1,0,0,2.337598,576,0)">
            <g id="path113-1" transform="matrix(2.943961,0,0,1.259395,1202.972941,393.957623)">
                <path d="M235.112,98.48C233.534,98.056 232.794,97.437 232.127,95.984C231.32,94.228 231.591,92.493 232.831,91.464C233.644,90.789 235.629,90.611 237.503,91.046C238.466,91.269 239.431,91.384 239.647,91.301C239.863,91.219 240.311,90.667 240.644,90.075C242.211,87.288 245.27,87.015 246.293,89.572C247.046,91.454 246.862,92.824 245.601,94.712C244.665,96.113 244.205,96.517 242.785,97.185C241.077,97.989 237.938,98.884 236.949,98.85C236.657,98.84 235.83,98.673 235.112,98.48ZM242.238,96.327C243.023,95.46 243.183,94.538 242.735,93.466C242.236,92.273 241.189,91.846 239.787,92.264C238.604,92.616 238.203,93.209 238.203,94.605C238.203,95.986 239.192,96.945 240.615,96.945C241.369,96.945 241.842,96.766 242.238,96.327Z" style="fill:rgb(183,71,239);fill-rule:nonzero;"/>
            </g>
        </g>
        <g transform="matrix(1,0,0,2.337598,576,0)">
            <g transform="matrix(0.262482,0,0,0.112287,1703.550766,408.862154)">
                <g>
                    <g transform="matrix(207.900894,0,0,207.900894,1114,915)">
                        <path d="M0.331,0.031C0.234,0.031 0.16,0.003 0.11,-0.053C0.06,-0.109 0.035,-0.181 0.035,-0.27C0.035,-0.345 0.052,-0.415 0.085,-0.48C0.104,-0.518 0.129,-0.551 0.158,-0.58C0.187,-0.609 0.227,-0.632 0.277,-0.651C0.327,-0.67 0.384,-0.679 0.447,-0.679C0.468,-0.679 0.487,-0.677 0.504,-0.673C0.521,-0.669 0.529,-0.666 0.529,-0.665C0.529,-0.633 0.527,-0.596 0.522,-0.555C0.518,-0.514 0.516,-0.494 0.515,-0.493C0.512,-0.49 0.498,-0.484 0.474,-0.477C0.449,-0.47 0.431,-0.466 0.419,-0.466L0.419,-0.472C0.419,-0.502 0.415,-0.523 0.406,-0.535C0.397,-0.547 0.382,-0.553 0.361,-0.553C0.314,-0.553 0.27,-0.528 0.229,-0.479C0.188,-0.429 0.168,-0.361 0.168,-0.274C0.168,-0.228 0.179,-0.187 0.202,-0.15C0.214,-0.131 0.232,-0.115 0.255,-0.103C0.278,-0.091 0.305,-0.085 0.336,-0.085C0.399,-0.085 0.46,-0.114 0.519,-0.172C0.522,-0.172 0.527,-0.168 0.535,-0.16C0.544,-0.151 0.552,-0.14 0.56,-0.126C0.577,-0.099 0.585,-0.083 0.585,-0.077C0.585,-0.071 0.575,-0.06 0.554,-0.044C0.533,-0.027 0.502,-0.011 0.46,0.006C0.418,0.023 0.375,0.031 0.331,0.031Z" style="fill:white;fill-rule:nonzero;"/>
                    </g>
                    <g transform="matrix(207.900894,0,0,207.900894,1232.503509,915)">
                        <path d="M0.186,-0.624L0.178,-0.349C0.178,-0.176 0.215,-0.089 0.288,-0.089C0.31,-0.089 0.329,-0.093 0.344,-0.103C0.359,-0.112 0.373,-0.128 0.386,-0.152C0.412,-0.199 0.425,-0.289 0.425,-0.422C0.425,-0.556 0.421,-0.645 0.414,-0.69C0.421,-0.693 0.431,-0.695 0.442,-0.695C0.492,-0.695 0.525,-0.686 0.542,-0.669C0.548,-0.639 0.551,-0.544 0.551,-0.384C0.551,-0.221 0.524,-0.109 0.47,-0.048C0.443,-0.018 0.415,0.003 0.384,0.015C0.353,0.027 0.317,0.033 0.276,0.033C0.197,0.033 0.139,0.003 0.103,-0.058C0.067,-0.118 0.049,-0.222 0.049,-0.37C0.049,-0.426 0.05,-0.47 0.052,-0.501C0.053,-0.532 0.054,-0.548 0.053,-0.549C0.049,-0.556 0.044,-0.569 0.038,-0.587C0.033,-0.605 0.03,-0.618 0.03,-0.626C0.03,-0.629 0.036,-0.633 0.049,-0.638C0.082,-0.651 0.112,-0.657 0.14,-0.657C0.168,-0.657 0.183,-0.656 0.184,-0.655C0.185,-0.654 0.186,-0.643 0.186,-0.624Z" style="fill:white;fill-rule:nonzero;"/>
                    </g>
                    <g transform="matrix(207.900894,0,0,207.900894,1355.372938,915)">
                        <path d="M0.198,-0.339C0.277,-0.346 0.335,-0.365 0.371,-0.395C0.409,-0.424 0.427,-0.454 0.427,-0.482C0.427,-0.511 0.413,-0.533 0.384,-0.546C0.355,-0.56 0.319,-0.567 0.275,-0.567C0.252,-0.567 0.228,-0.565 0.204,-0.561C0.2,-0.532 0.198,-0.458 0.198,-0.339ZM0.209,0.006C0.202,0.013 0.187,0.019 0.165,0.024C0.143,0.028 0.125,0.03 0.11,0.03C0.095,0.03 0.083,0.028 0.072,0.024L0.078,-0.553C0.069,-0.564 0.061,-0.581 0.052,-0.606C0.044,-0.631 0.04,-0.646 0.04,-0.651C0.04,-0.657 0.041,-0.661 0.042,-0.662C0.043,-0.664 0.065,-0.666 0.105,-0.668C0.146,-0.671 0.188,-0.672 0.23,-0.672C0.272,-0.672 0.309,-0.67 0.342,-0.665C0.375,-0.66 0.409,-0.652 0.444,-0.64C0.479,-0.629 0.507,-0.61 0.528,-0.585C0.549,-0.56 0.559,-0.527 0.559,-0.487C0.559,-0.448 0.545,-0.411 0.517,-0.377C0.489,-0.343 0.451,-0.314 0.403,-0.291C0.403,-0.28 0.424,-0.233 0.466,-0.147C0.508,-0.062 0.541,-0.008 0.566,0.017C0.567,0.018 0.567,0.019 0.567,0.021C0.567,0.022 0.562,0.025 0.551,0.03C0.522,0.044 0.49,0.051 0.456,0.051L0.431,0.049C0.416,0.034 0.391,-0.014 0.354,-0.097C0.318,-0.18 0.298,-0.23 0.294,-0.249C0.286,-0.244 0.254,-0.237 0.199,-0.228C0.2,-0.094 0.204,-0.016 0.209,0.006Z" style="fill:white;fill-rule:nonzero;"/>
                    </g>
                    <g transform="matrix(207.900894,0,0,207.900894,1475.331753,915)">
                        <path d="M0.258,-0.089C0.261,-0.089 0.262,-0.072 0.262,-0.04C0.262,-0.006 0.26,0.01 0.256,0.01C0.159,0.01 0.09,0.015 0.048,0.024C0.046,0.024 0.045,0.009 0.045,-0.02C0.045,-0.049 0.047,-0.067 0.052,-0.073C0.06,-0.077 0.073,-0.079 0.091,-0.079C0.09,-0.102 0.089,-0.182 0.089,-0.322C0.089,-0.46 0.091,-0.54 0.094,-0.56L0.092,-0.56C0.074,-0.56 0.059,-0.558 0.047,-0.554C0.046,-0.554 0.045,-0.569 0.045,-0.6C0.045,-0.63 0.047,-0.647 0.051,-0.651C0.055,-0.655 0.082,-0.659 0.131,-0.662C0.18,-0.665 0.222,-0.667 0.255,-0.667C0.257,-0.667 0.258,-0.662 0.258,-0.651L0.255,-0.577C0.255,-0.574 0.254,-0.573 0.252,-0.573C0.229,-0.573 0.217,-0.573 0.216,-0.572C0.215,-0.571 0.214,-0.557 0.213,-0.53C0.21,-0.425 0.209,-0.333 0.209,-0.257C0.209,-0.179 0.212,-0.123 0.217,-0.088C0.226,-0.089 0.239,-0.089 0.258,-0.089Z" style="fill:white;fill-rule:nonzero;"/>
                    </g>
                    <g transform="matrix(207.900894,0,0,207.900894,1532.920301,915)">
                        <path d="M0.322,0.03C0.223,0.03 0.149,0.001 0.102,-0.056C0.054,-0.113 0.03,-0.185 0.03,-0.272C0.03,-0.314 0.035,-0.353 0.045,-0.39C0.055,-0.427 0.064,-0.453 0.073,-0.468C0.082,-0.483 0.089,-0.492 0.094,-0.495C0.099,-0.498 0.12,-0.5 0.157,-0.5L0.176,-0.5C0.176,-0.533 0.182,-0.562 0.196,-0.587C0.208,-0.612 0.225,-0.63 0.246,-0.642C0.285,-0.664 0.321,-0.675 0.356,-0.675C0.541,-0.675 0.634,-0.558 0.634,-0.325C0.634,-0.252 0.622,-0.188 0.597,-0.131C0.583,-0.099 0.565,-0.072 0.542,-0.049C0.519,-0.025 0.489,-0.007 0.452,0.008C0.414,0.023 0.371,0.03 0.322,0.03ZM0.505,-0.333C0.505,-0.49 0.458,-0.568 0.365,-0.568C0.338,-0.568 0.318,-0.56 0.303,-0.545C0.289,-0.53 0.282,-0.51 0.282,-0.486C0.282,-0.463 0.29,-0.435 0.304,-0.403C0.32,-0.371 0.335,-0.346 0.35,-0.327L0.372,-0.299C0.372,-0.291 0.36,-0.284 0.335,-0.277C0.31,-0.27 0.291,-0.266 0.276,-0.266C0.273,-0.266 0.266,-0.272 0.256,-0.285C0.245,-0.298 0.233,-0.317 0.22,-0.344C0.206,-0.37 0.196,-0.398 0.19,-0.427C0.18,-0.417 0.172,-0.397 0.166,-0.366C0.16,-0.335 0.157,-0.306 0.157,-0.277C0.157,-0.221 0.173,-0.173 0.204,-0.134C0.235,-0.094 0.275,-0.074 0.323,-0.074C0.444,-0.074 0.505,-0.16 0.505,-0.333Z" style="fill:white;fill-rule:nonzero;"/>
                    </g>
                    <g transform="matrix(207.900894,0,0,207.900894,1670.966494,915)">
                        <path d="M0.186,-0.624L0.178,-0.349C0.178,-0.176 0.215,-0.089 0.288,-0.089C0.31,-0.089 0.329,-0.093 0.344,-0.103C0.359,-0.112 0.373,-0.128 0.386,-0.152C0.412,-0.199 0.425,-0.289 0.425,-0.422C0.425,-0.556 0.421,-0.645 0.414,-0.69C0.421,-0.693 0.431,-0.695 0.442,-0.695C0.492,-0.695 0.525,-0.686 0.542,-0.669C0.548,-0.639 0.551,-0.544 0.551,-0.384C0.551,-0.221 0.524,-0.109 0.47,-0.048C0.443,-0.018 0.415,0.003 0.384,0.015C0.353,0.027 0.317,0.033 0.276,0.033C0.197,0.033 0.139,0.003 0.103,-0.058C0.067,-0.118 0.049,-0.222 0.049,-0.37C0.049,-0.426 0.05,-0.47 0.052,-0.501C0.053,-0.532 0.054,-0.548 0.053,-0.549C0.049,-0.556 0.044,-0.569 0.038,-0.587C0.033,-0.605 0.03,-0.618 0.03,-0.626C0.03,-0.629 0.036,-0.633 0.049,-0.638C0.082,-0.651 0.112,-0.657 0.14,-0.657C0.168,-0.657 0.183,-0.656 0.184,-0.655C0.185,-0.654 0.186,-0.643 0.186,-0.624Z" style="fill:white;fill-rule:nonzero;"/>
                    </g>
                    <g transform="matrix(207.900894,0,0,207.900894,1789.677905,915)">
                        <path d="M0.413,-0.571C0.402,-0.572 0.39,-0.573 0.377,-0.573C0.363,-0.573 0.346,-0.572 0.327,-0.569C0.307,-0.566 0.286,-0.562 0.266,-0.556C0.245,-0.551 0.227,-0.542 0.214,-0.53C0.201,-0.518 0.194,-0.503 0.194,-0.486C0.194,-0.47 0.204,-0.455 0.225,-0.442C0.245,-0.428 0.269,-0.417 0.298,-0.406C0.327,-0.395 0.355,-0.382 0.385,-0.368C0.413,-0.354 0.438,-0.334 0.459,-0.306C0.479,-0.28 0.489,-0.247 0.489,-0.209C0.489,-0.142 0.457,-0.085 0.393,-0.037C0.328,0.01 0.247,0.033 0.149,0.033C0.1,0.033 0.063,0.03 0.039,0.025C0.033,0.019 0.03,-0.017 0.03,-0.083C0.03,-0.148 0.031,-0.188 0.034,-0.201C0.036,-0.207 0.048,-0.214 0.069,-0.223C0.09,-0.232 0.111,-0.236 0.131,-0.236C0.131,-0.157 0.139,-0.11 0.156,-0.093C0.163,-0.086 0.175,-0.083 0.194,-0.083C0.237,-0.083 0.274,-0.095 0.305,-0.119C0.337,-0.143 0.353,-0.171 0.353,-0.204C0.353,-0.226 0.343,-0.245 0.322,-0.262C0.301,-0.279 0.276,-0.293 0.246,-0.305C0.217,-0.318 0.187,-0.331 0.158,-0.345C0.129,-0.358 0.104,-0.377 0.083,-0.401C0.062,-0.425 0.052,-0.453 0.052,-0.486C0.052,-0.535 0.081,-0.579 0.14,-0.62C0.198,-0.66 0.282,-0.68 0.393,-0.68C0.419,-0.68 0.434,-0.678 0.437,-0.675C0.438,-0.673 0.438,-0.668 0.438,-0.66C0.438,-0.653 0.436,-0.638 0.431,-0.616C0.426,-0.594 0.42,-0.579 0.413,-0.571Z" style="fill:white;fill-rule:nonzero;"/>
                    </g>
                </g>
            </g>
        </g>
        <g transform="matrix(1,0,0,2.337598,576,0)">
            <g transform="matrix(0.262482,0,0,0.112287,1703.550766,430.154565)">
                <g>
                    <g transform="matrix(207.900894,0,0,207.900894,1114,915)">
                        <path d="M0.258,-0.089C0.261,-0.089 0.262,-0.072 0.262,-0.04C0.262,-0.006 0.26,0.01 0.256,0.01C0.159,0.01 0.09,0.015 0.048,0.024C0.046,0.024 0.045,0.009 0.045,-0.02C0.045,-0.049 0.047,-0.067 0.052,-0.073C0.06,-0.077 0.073,-0.079 0.091,-0.079C0.09,-0.102 0.089,-0.182 0.089,-0.322C0.089,-0.46 0.091,-0.54 0.094,-0.56L0.092,-0.56C0.074,-0.56 0.059,-0.558 0.047,-0.554C0.046,-0.554 0.045,-0.569 0.045,-0.6C0.045,-0.63 0.047,-0.647 0.051,-0.651C0.055,-0.655 0.082,-0.659 0.131,-0.662C0.18,-0.665 0.222,-0.667 0.255,-0.667C0.257,-0.667 0.258,-0.662 0.258,-0.651L0.255,-0.577C0.255,-0.574 0.254,-0.573 0.252,-0.573C0.229,-0.573 0.217,-0.573 0.216,-0.572C0.215,-0.571 0.214,-0.557 0.213,-0.53C0.21,-0.425 0.209,-0.333 0.209,-0.257C0.209,-0.179 0.212,-0.123 0.217,-0.088C0.226,-0.089 0.239,-0.089 0.258,-0.089Z" style="fill:white;fill-rule:nonzero;"/>
                    </g>
                    <g transform="matrix(207.900894,0,0,207.900894,1177.825574,915)">
                        <path d="M0.1,0.03C0.087,0.03 0.075,0.028 0.064,0.024L0.064,-0.006C0.064,-0.108 0.067,-0.256 0.074,-0.45L0.078,-0.547C0.069,-0.558 0.061,-0.576 0.052,-0.601C0.044,-0.625 0.04,-0.64 0.04,-0.645C0.04,-0.651 0.041,-0.655 0.042,-0.656C0.043,-0.657 0.06,-0.659 0.092,-0.661C0.125,-0.664 0.158,-0.665 0.193,-0.665C0.227,-0.665 0.246,-0.663 0.25,-0.66C0.368,-0.396 0.428,-0.261 0.43,-0.256C0.433,-0.251 0.435,-0.248 0.436,-0.248L0.44,-0.255L0.44,-0.283C0.44,-0.34 0.438,-0.41 0.434,-0.495C0.431,-0.58 0.427,-0.632 0.423,-0.653C0.432,-0.662 0.45,-0.669 0.475,-0.675C0.499,-0.682 0.522,-0.685 0.542,-0.685C0.563,-0.685 0.573,-0.683 0.573,-0.68C0.573,-0.667 0.571,-0.651 0.566,-0.633C0.561,-0.615 0.559,-0.606 0.559,-0.605C0.554,-0.575 0.552,-0.528 0.552,-0.465C0.552,-0.401 0.552,-0.355 0.552,-0.327C0.553,-0.299 0.553,-0.272 0.553,-0.246C0.554,-0.221 0.554,-0.196 0.555,-0.171C0.556,-0.145 0.556,-0.123 0.556,-0.102C0.557,-0.058 0.558,-0.027 0.558,-0.01L0.559,0.004C0.559,0.006 0.555,0.009 0.546,0.012C0.52,0.023 0.485,0.028 0.441,0.028L0.404,0.024C0.377,-0.051 0.338,-0.146 0.287,-0.261C0.236,-0.376 0.207,-0.438 0.201,-0.447C0.195,-0.456 0.191,-0.46 0.19,-0.46L0.187,-0.453C0.184,-0.434 0.183,-0.394 0.183,-0.333C0.183,-0.271 0.184,-0.204 0.188,-0.131C0.191,-0.058 0.194,-0.013 0.198,0.006C0.18,0.022 0.147,0.03 0.1,0.03Z" style="fill:white;fill-rule:nonzero;"/>
                    </g>
                    <g transform="matrix(207.900894,0,0,207.900894,1305.268822,915)">
                        <path d="M0.235,0.048C0.228,0.048 0.224,0.047 0.223,0.046C0.201,0.026 0.16,-0.074 0.1,-0.255C0.04,-0.436 0.01,-0.56 0.01,-0.627C0.01,-0.628 0.015,-0.631 0.024,-0.635C0.052,-0.648 0.077,-0.654 0.101,-0.654C0.124,-0.654 0.135,-0.653 0.135,-0.651C0.138,-0.618 0.158,-0.532 0.195,-0.392C0.232,-0.252 0.263,-0.155 0.29,-0.101C0.296,-0.089 0.302,-0.086 0.308,-0.092C0.31,-0.094 0.311,-0.096 0.312,-0.099C0.33,-0.133 0.356,-0.202 0.39,-0.306C0.423,-0.411 0.44,-0.497 0.44,-0.564C0.44,-0.572 0.432,-0.581 0.417,-0.59C0.403,-0.599 0.389,-0.605 0.377,-0.606C0.376,-0.607 0.376,-0.611 0.376,-0.617C0.376,-0.623 0.378,-0.632 0.381,-0.645C0.384,-0.658 0.387,-0.666 0.39,-0.668C0.451,-0.685 0.513,-0.693 0.574,-0.693C0.584,-0.692 0.589,-0.69 0.589,-0.689C0.589,-0.632 0.574,-0.546 0.542,-0.431C0.511,-0.317 0.48,-0.215 0.447,-0.126C0.414,-0.036 0.393,0.014 0.383,0.024C0.354,0.04 0.304,0.048 0.235,0.048Z" style="fill:white;fill-rule:nonzero;"/>
                    </g>
                    <g transform="matrix(207.900894,0,0,207.900894,1429.801458,915)">
                        <path d="M0.093,-0.391L0.094,-0.499C0.094,-0.528 0.093,-0.543 0.092,-0.546C0.085,-0.553 0.075,-0.571 0.064,-0.599C0.052,-0.627 0.046,-0.645 0.046,-0.653C0.053,-0.66 0.17,-0.664 0.397,-0.664C0.453,-0.664 0.481,-0.663 0.481,-0.66C0.481,-0.646 0.478,-0.631 0.472,-0.614C0.465,-0.597 0.459,-0.584 0.452,-0.574C0.444,-0.564 0.44,-0.559 0.436,-0.56C0.433,-0.561 0.42,-0.562 0.396,-0.562C0.371,-0.562 0.337,-0.561 0.294,-0.557C0.251,-0.554 0.227,-0.551 0.223,-0.547C0.219,-0.543 0.217,-0.506 0.217,-0.437L0.218,-0.395C0.245,-0.396 0.284,-0.396 0.336,-0.396C0.388,-0.396 0.414,-0.395 0.414,-0.393C0.414,-0.369 0.406,-0.342 0.39,-0.311C0.384,-0.3 0.38,-0.295 0.379,-0.296C0.362,-0.296 0.332,-0.294 0.29,-0.291C0.248,-0.289 0.224,-0.285 0.217,-0.281C0.216,-0.28 0.216,-0.252 0.216,-0.197C0.216,-0.142 0.218,-0.112 0.221,-0.109C0.232,-0.098 0.289,-0.093 0.393,-0.093C0.435,-0.093 0.463,-0.094 0.478,-0.097C0.493,-0.099 0.5,-0.1 0.5,-0.099C0.5,-0.083 0.495,-0.064 0.484,-0.042C0.473,-0.02 0.462,-0.003 0.45,0.008C0.443,0.015 0.384,0.018 0.271,0.018C0.158,0.018 0.099,0.015 0.095,0.01C0.091,0.007 0.089,-0.026 0.089,-0.087C0.089,-0.147 0.09,-0.212 0.091,-0.28C0.079,-0.291 0.067,-0.307 0.057,-0.33C0.046,-0.353 0.04,-0.372 0.04,-0.388C0.04,-0.389 0.058,-0.39 0.093,-0.391Z" style="fill:white;fill-rule:nonzero;"/>
                    </g>
                    <g transform="matrix(207.900894,0,0,207.900894,1539.988931,915)">
                        <path d="M0.1,0.03C0.087,0.03 0.075,0.028 0.064,0.024L0.064,-0.006C0.064,-0.108 0.067,-0.256 0.074,-0.45L0.078,-0.547C0.069,-0.558 0.061,-0.576 0.052,-0.601C0.044,-0.625 0.04,-0.64 0.04,-0.645C0.04,-0.651 0.041,-0.655 0.042,-0.656C0.043,-0.657 0.06,-0.659 0.092,-0.661C0.125,-0.664 0.158,-0.665 0.193,-0.665C0.227,-0.665 0.246,-0.663 0.25,-0.66C0.368,-0.396 0.428,-0.261 0.43,-0.256C0.433,-0.251 0.435,-0.248 0.436,-0.248L0.44,-0.255L0.44,-0.283C0.44,-0.34 0.438,-0.41 0.434,-0.495C0.431,-0.58 0.427,-0.632 0.423,-0.653C0.432,-0.662 0.45,-0.669 0.475,-0.675C0.499,-0.682 0.522,-0.685 0.542,-0.685C0.563,-0.685 0.573,-0.683 0.573,-0.68C0.573,-0.667 0.571,-0.651 0.566,-0.633C0.561,-0.615 0.559,-0.606 0.559,-0.605C0.554,-0.575 0.552,-0.528 0.552,-0.465C0.552,-0.401 0.552,-0.355 0.552,-0.327C0.553,-0.299 0.553,-0.272 0.553,-0.246C0.554,-0.221 0.554,-0.196 0.555,-0.171C0.556,-0.145 0.556,-0.123 0.556,-0.102C0.557,-0.058 0.558,-0.027 0.558,-0.01L0.559,0.004C0.559,0.006 0.555,0.009 0.546,0.012C0.52,0.023 0.485,0.028 0.441,0.028L0.404,0.024C0.377,-0.051 0.338,-0.146 0.287,-0.261C0.236,-0.376 0.207,-0.438 0.201,-0.447C0.195,-0.456 0.191,-0.46 0.19,-0.46L0.187,-0.453C0.184,-0.434 0.183,-0.394 0.183,-0.333C0.183,-0.271 0.184,-0.204 0.188,-0.131C0.191,-0.058 0.194,-0.013 0.198,0.006C0.18,0.022 0.147,0.03 0.1,0.03Z" style="fill:white;fill-rule:nonzero;"/>
                    </g>
                    <g transform="matrix(207.900894,0,0,207.900894,1667.432179,915)">
                        <path d="M0.162,-0.08L0.169,-0.496C0.169,-0.53 0.168,-0.548 0.167,-0.549C0.165,-0.551 0.159,-0.552 0.15,-0.552C0.129,-0.552 0.093,-0.549 0.04,-0.542L0.013,-0.538L0.01,-0.564C0.01,-0.596 0.015,-0.624 0.026,-0.648L0.032,-0.66C0.084,-0.661 0.143,-0.663 0.208,-0.666C0.274,-0.67 0.333,-0.672 0.387,-0.672C0.44,-0.672 0.466,-0.671 0.466,-0.668C0.466,-0.649 0.464,-0.626 0.461,-0.599C0.458,-0.572 0.454,-0.556 0.449,-0.551C0.434,-0.554 0.405,-0.556 0.364,-0.556C0.323,-0.556 0.301,-0.555 0.299,-0.553C0.294,-0.548 0.292,-0.461 0.292,-0.292C0.292,-0.123 0.302,-0.02 0.322,0.017L0.322,0.018C0.322,0.024 0.309,0.03 0.283,0.035C0.257,0.04 0.236,0.043 0.221,0.043C0.2,0.043 0.182,0.04 0.169,0.034C0.164,0.029 0.162,-0.009 0.162,-0.08Z" style="fill:white;fill-rule:nonzero;"/>
                    </g>
                    <g transform="matrix(207.900894,0,0,207.900894,1765.3535,915)">
                        <path d="M0.258,-0.089C0.261,-0.089 0.262,-0.072 0.262,-0.04C0.262,-0.006 0.26,0.01 0.256,0.01C0.159,0.01 0.09,0.015 0.048,0.024C0.046,0.024 0.045,0.009 0.045,-0.02C0.045,-0.049 0.047,-0.067 0.052,-0.073C0.06,-0.077 0.073,-0.079 0.091,-0.079C0.09,-0.102 0.089,-0.182 0.089,-0.322C0.089,-0.46 0.091,-0.54 0.094,-0.56L0.092,-0.56C0.074,-0.56 0.059,-0.558 0.047,-0.554C0.046,-0.554 0.045,-0.569 0.045,-0.6C0.045,-0.63 0.047,-0.647 0.051,-0.651C0.055,-0.655 0.082,-0.659 0.131,-0.662C0.18,-0.665 0.222,-0.667 0.255,-0.667C0.257,-0.667 0.258,-0.662 0.258,-0.651L0.255,-0.577C0.255,-0.574 0.254,-0.573 0.252,-0.573C0.229,-0.573 0.217,-0.573 0.216,-0.572C0.215,-0.571 0.214,-0.557 0.213,-0.53C0.21,-0.425 0.209,-0.333 0.209,-0.257C0.209,-0.179 0.212,-0.123 0.217,-0.088C0.226,-0.089 0.239,-0.089 0.258,-0.089Z" style="fill:white;fill-rule:nonzero;"/>
                    </g>
                    <g transform="matrix(207.900894,0,0,207.900894,1822.942048,915)">
                        <path d="M0.322,0.03C0.223,0.03 0.149,0.001 0.102,-0.056C0.054,-0.113 0.03,-0.185 0.03,-0.272C0.03,-0.314 0.035,-0.353 0.045,-0.39C0.055,-0.427 0.064,-0.453 0.073,-0.468C0.082,-0.483 0.089,-0.492 0.094,-0.495C0.099,-0.498 0.12,-0.5 0.157,-0.5L0.176,-0.5C0.176,-0.533 0.182,-0.562 0.196,-0.587C0.208,-0.612 0.225,-0.63 0.246,-0.642C0.285,-0.664 0.321,-0.675 0.356,-0.675C0.541,-0.675 0.634,-0.558 0.634,-0.325C0.634,-0.252 0.622,-0.188 0.597,-0.131C0.583,-0.099 0.565,-0.072 0.542,-0.049C0.519,-0.025 0.489,-0.007 0.452,0.008C0.414,0.023 0.371,0.03 0.322,0.03ZM0.505,-0.333C0.505,-0.49 0.458,-0.568 0.365,-0.568C0.338,-0.568 0.318,-0.56 0.303,-0.545C0.289,-0.53 0.282,-0.51 0.282,-0.486C0.282,-0.463 0.29,-0.435 0.304,-0.403C0.32,-0.371 0.335,-0.346 0.35,-0.327L0.372,-0.299C0.372,-0.291 0.36,-0.284 0.335,-0.277C0.31,-0.27 0.291,-0.266 0.276,-0.266C0.273,-0.266 0.266,-0.272 0.256,-0.285C0.245,-0.298 0.233,-0.317 0.22,-0.344C0.206,-0.37 0.196,-0.398 0.19,-0.427C0.18,-0.417 0.172,-0.397 0.166,-0.366C0.16,-0.335 0.157,-0.306 0.157,-0.277C0.157,-0.221 0.173,-0.173 0.204,-0.134C0.235,-0.094 0.275,-0.074 0.323,-0.074C0.444,-0.074 0.505,-0.16 0.505,-0.333Z" style="fill:white;fill-rule:nonzero;"/>
                    </g>
                    <g transform="matrix(207.900894,0,0,207.900894,1960.988241,915)">
                        <path d="M0.1,0.03C0.087,0.03 0.075,0.028 0.064,0.024L0.064,-0.006C0.064,-0.108 0.067,-0.256 0.074,-0.45L0.078,-0.547C0.069,-0.558 0.061,-0.576 0.052,-0.601C0.044,-0.625 0.04,-0.64 0.04,-0.645C0.04,-0.651 0.041,-0.655 0.042,-0.656C0.043,-0.657 0.06,-0.659 0.092,-0.661C0.125,-0.664 0.158,-0.665 0.193,-0.665C0.227,-0.665 0.246,-0.663 0.25,-0.66C0.368,-0.396 0.428,-0.261 0.43,-0.256C0.433,-0.251 0.435,-0.248 0.436,-0.248L0.44,-0.255L0.44,-0.283C0.44,-0.34 0.438,-0.41 0.434,-0.495C0.431,-0.58 0.427,-0.632 0.423,-0.653C0.432,-0.662 0.45,-0.669 0.475,-0.675C0.499,-0.682 0.522,-0.685 0.542,-0.685C0.563,-0.685 0.573,-0.683 0.573,-0.68C0.573,-0.667 0.571,-0.651 0.566,-0.633C0.561,-0.615 0.559,-0.606 0.559,-0.605C0.554,-0.575 0.552,-0.528 0.552,-0.465C0.552,-0.401 0.552,-0.355 0.552,-0.327C0.553,-0.299 0.553,-0.272 0.553,-0.246C0.554,-0.221 0.554,-0.196 0.555,-0.171C0.556,-0.145 0.556,-0.123 0.556,-0.102C0.557,-0.058 0.558,-0.027 0.558,-0.01L0.559,0.004C0.559,0.006 0.555,0.009 0.546,0.012C0.52,0.023 0.485,0.028 0.441,0.028L0.404,0.024C0.377,-0.051 0.338,-0.146 0.287,-0.261C0.236,-0.376 0.207,-0.438 0.201,-0.447C0.195,-0.456 0.191,-0.46 0.19,-0.46L0.187,-0.453C0.184,-0.434 0.183,-0.394 0.183,-0.333C0.183,-0.271 0.184,-0.204 0.188,-0.131C0.191,-0.058 0.194,-0.013 0.198,0.006C0.18,0.022 0.147,0.03 0.1,0.03Z" style="fill:white;fill-rule:nonzero;"/>
                    </g>
                    <g transform="matrix(207.900894,0,0,207.900894,2088.431489,915)">
                        <path d="M0.413,-0.571C0.402,-0.572 0.39,-0.573 0.377,-0.573C0.363,-0.573 0.346,-0.572 0.327,-0.569C0.307,-0.566 0.286,-0.562 0.266,-0.556C0.245,-0.551 0.227,-0.542 0.214,-0.53C0.201,-0.518 0.194,-0.503 0.194,-0.486C0.194,-0.47 0.204,-0.455 0.225,-0.442C0.245,-0.428 0.269,-0.417 0.298,-0.406C0.327,-0.395 0.355,-0.382 0.385,-0.368C0.413,-0.354 0.438,-0.334 0.459,-0.306C0.479,-0.28 0.489,-0.247 0.489,-0.209C0.489,-0.142 0.457,-0.085 0.393,-0.037C0.328,0.01 0.247,0.033 0.149,0.033C0.1,0.033 0.063,0.03 0.039,0.025C0.033,0.019 0.03,-0.017 0.03,-0.083C0.03,-0.148 0.031,-0.188 0.034,-0.201C0.036,-0.207 0.048,-0.214 0.069,-0.223C0.09,-0.232 0.111,-0.236 0.131,-0.236C0.131,-0.157 0.139,-0.11 0.156,-0.093C0.163,-0.086 0.175,-0.083 0.194,-0.083C0.237,-0.083 0.274,-0.095 0.305,-0.119C0.337,-0.143 0.353,-0.171 0.353,-0.204C0.353,-0.226 0.343,-0.245 0.322,-0.262C0.301,-0.279 0.276,-0.293 0.246,-0.305C0.217,-0.318 0.187,-0.331 0.158,-0.345C0.129,-0.358 0.104,-0.377 0.083,-0.401C0.062,-0.425 0.052,-0.453 0.052,-0.486C0.052,-0.535 0.081,-0.579 0.14,-0.62C0.198,-0.66 0.282,-0.68 0.393,-0.68C0.419,-0.68 0.434,-0.678 0.437,-0.675C0.438,-0.673 0.438,-0.668 0.438,-0.66C0.438,-0.653 0.436,-0.638 0.431,-0.616C0.426,-0.594 0.42,-0.579 0.413,-0.571Z" style="fill:white;fill-rule:nonzero;"/>
                    </g>
                </g>
            </g>
        </g>
    </g>
</svg>
