<?xml version="1.0" encoding="UTF-8" standalone="no"?>
<!DOCTYPE svg PUBLIC "-//W3C//DTD SVG 1.1//EN" "http://www.w3.org/Graphics/SVG/1.1/DTD/svg11.dtd">
<svg width="100%" height="100%" viewBox="0 0 407 83" version="1.1" xmlns="http://www.w3.org/2000/svg" xmlns:xlink="http://www.w3.org/1999/xlink" xml:space="preserve" xmlns:serif="http://www.serif.com/" style="fill-rule:evenodd;clip-rule:evenodd;stroke-linejoin:round;stroke-miterlimit:2;">
    <g transform="matrix(1,0,0,1,-3031.98,-3527.79)">
        <g transform="matrix(1.9532,0,0,4.26857,-1899.74,0)">
            <g transform="matrix(0.659564,0,0,0.659564,843.027,257.993)">
                <g id="path3037" transform="matrix(1.56762,0,0,0.71731,2618.51,142.341)">
                    <path d="M83.155,1044C82.147,1043.81 81.187,1043.53 80.208,1043.24C80.201,1042.21 80.292,1041.14 80.488,1040.16C89.283,1042.7 91.321,1041.04 91.471,1035.42L91.471,1034.06L90.336,1035.1C88.858,1036.45 87.411,1036.94 85.256,1036.8C80.973,1036.52 78.602,1033.39 78.595,1028C78.591,1024.78 79.303,1022.73 81.094,1020.82C83.484,1018.26 87.574,1017.77 90.434,1019.7L91.471,1020.39L91.471,1018.93L95.155,1019.05L95.216,1026.32C95.311,1037.64 94.98,1039.85 92.865,1042.01C90.029,1044.4 87.132,1044.39 83.155,1044L83.155,1044ZM88.728,1032.85C89.218,1032.6 90.035,1032.01 90.545,1031.54L91.471,1030.68L91.471,1023.62L90.812,1023.06C88.554,1021.16 86.128,1021.02 84.295,1022.68C83.106,1023.75 82.583,1025.3 82.567,1027.79C82.547,1030.8 83.196,1032.33 84.819,1033.09C85.894,1033.59 87.456,1033.5 88.728,1032.85ZM35.454,1035.23C33.302,1033.18 32.289,1029.96 32.72,1026.55C33.07,1023.78 33.915,1021.98 35.577,1020.44C36.896,1019.23 38.135,1018.72 40.088,1018.58C44.844,1018.26 47.664,1021.5 47.678,1027.32L47.682,1028.84C44.051,1028.94 39.9,1028.61 36.524,1029.12C37.018,1032.25 39.278,1034.59 42.419,1034.63C44.306,1034.63 45.664,1034.15 47.479,1033.8L47.534,1036.67C47.534,1036.67 43.296,1037.68 41.682,1037.67C39.205,1037.68 36.854,1036.55 35.454,1035.23L35.454,1035.23ZM43.891,1025.32C43.887,1023.52 42.721,1021.84 41.298,1021.57C39.052,1021.15 37.331,1022.45 36.767,1025L36.569,1025.9L43.892,1025.9L43.891,1025.32L43.891,1025.32ZM63.033,1035.23C60.881,1033.18 59.868,1029.96 60.299,1026.55C60.649,1023.78 61.494,1021.98 63.156,1020.44C64.475,1019.23 65.714,1018.72 67.667,1018.58C72.423,1018.26 75.243,1021.5 75.257,1027.32L75.261,1028.84C71.386,1028.79 67.674,1028.81 64.006,1028.78C64.224,1032.47 66.61,1034.82 69.998,1034.63C71.903,1034.67 73.575,1034.15 75.057,1033.8C75.387,1034 75.307,1036.33 74.96,1036.62C74.482,1037.02 70.875,1037.68 69.261,1037.67C66.784,1037.68 64.433,1036.55 63.033,1035.23L63.033,1035.23ZM71.47,1025.32C71.466,1023.52 70.3,1021.84 68.877,1021.57C66.631,1021.15 64.91,1022.45 64.346,1025L64.148,1025.9L71.471,1025.9L71.47,1025.32L71.47,1025.32ZM115.629,1037.4C112.994,1036.41 111.697,1033.58 112.561,1030.7C112.906,1029.55 114.226,1028.13 115.561,1027.47C116.824,1026.86 119.379,1026.34 121.208,1026.32L122.419,1026.31L122.419,1024.83C122.348,1020.82 119.179,1021.08 116.053,1022.22C115.212,1022.52 114.114,1022.77 113.911,1022.83C113.885,1021.89 113.787,1021.25 113.787,1019.81L115.524,1019.26C116.681,1018.89 117.964,1018.67 119.37,1018.59C122.747,1018.39 124.572,1019.13 125.638,1021.13C126.076,1021.95 126.108,1022.33 126.208,1027.93C126.313,1033.85 126.314,1033.86 126.824,1034.4C127.129,1034.73 128.247,1035.04 128.59,1035.04C128.58,1036.28 128.723,1036.23 128.574,1037.39C128.083,1037.52 126.45,1037.68 125.84,1037.63C124.647,1037.54 123.908,1037.04 123.339,1035.94L123.036,1035.36L122.254,1035.99C120.449,1037.43 117.439,1038.07 115.629,1037.39L115.629,1037.4ZM120.052,1034.23C120.516,1034.07 121.237,1033.71 121.655,1033.44L122.413,1032.95L122.413,1028.63L121.51,1028.63C119.387,1028.63 116.857,1029.72 116.338,1030.86C115.767,1032.12 116.245,1033.61 117.402,1034.18C118.264,1034.6 118.957,1034.61 120.047,1034.23L120.052,1034.23ZM18.84,1037.27L18.84,1015.37L10.208,1015.37L10.208,1012.42L31.471,1012.42L31.471,1015.37L22.84,1015.37L22.84,1037.27L18.84,1037.27ZM52.313,1037.27L52.313,1010.95L56.103,1010.95L56.103,1037.27L52.313,1037.27ZM100.524,1028.11L100.524,1018.93C101.752,1018.97 103.029,1018.92 104.257,1018.96C104.245,1019.71 104.29,1020.47 104.334,1021.22C106.061,1019.33 107.893,1018.84 109.427,1018.67L110.84,1018.53L110.84,1022.14C108.471,1021.44 106.002,1023.01 104.873,1024.53C104.44,1025.13 104.414,1025.44 104.313,1031.16L104.208,1037.16C102.98,1037.2 101.752,1037.24 100.524,1037.28L100.524,1028.11L100.524,1028.11ZM131.892,1028.11L131.892,1018.95L135.682,1018.95L135.682,1022.09C137.28,1020.29 139.214,1018.6 141.366,1018.63C143.997,1018.53 145.075,1020.23 146.249,1022.12C149.539,1018.41 155.539,1017.35 157.393,1021.75C157.572,1027.77 157.468,1030 157.373,1037.26C156.152,1037.3 155.029,1037.24 153.807,1037.28C153.863,1032.6 153.795,1027.31 153.681,1022.91C153.213,1021.99 152.344,1021.27 150.845,1021.67C149.347,1022.06 147.991,1023.23 146.58,1024.87C146.58,1028.96 146.629,1033.18 146.629,1037.27L142.855,1037.27C142.815,1032.48 142.774,1027.7 142.734,1022.91C141.977,1022.04 141.374,1021.53 139.944,1021.87C138.515,1022.21 136.617,1023.34 135.681,1025.13C135.681,1029.17 135.632,1033.22 135.632,1037.27L131.892,1037.27C131.892,1034.21 131.892,1031.16 131.892,1028.11L131.892,1028.11Z" style="fill:white;fill-rule:nonzero;"/>
                </g>
                <g transform="matrix(0.0644038,0,0,0.0294698,2550.03,861.882)">
                    <circle id="Oval" cx="500" cy="500" r="500" style="fill:url(#_Linear1);"/>
                    <path id="Path-3" d="M226.328,494.722C372.089,431.217 469.285,389.35 517.917,369.122C656.773,311.367 685.625,301.335 704.431,301.004C708.568,300.931 717.816,301.956 723.806,306.817C728.865,310.921 730.257,316.466 730.923,320.357C731.589,324.249 732.418,333.114 731.759,340.041C724.234,419.102 691.675,610.965 675.111,699.515C668.102,736.984 654.301,749.548 640.941,750.777C611.905,753.449 589.856,731.588 561.733,713.153C517.727,684.306 492.866,666.349 450.15,638.2C400.784,605.669 432.786,587.789 460.919,558.569C468.282,550.921 596.215,434.556 598.691,424C599.001,422.68 599.288,417.759 596.365,415.16C593.441,412.562 589.126,413.45 586.012,414.157C581.599,415.159 511.298,461.625 375.11,553.556C355.155,567.259 337.081,573.935 320.887,573.585C303.034,573.199 268.693,563.491 243.164,555.192C211.851,545.014 186.964,539.633 189.132,522.346C190.26,513.343 202.659,504.135 226.328,494.722Z" style="fill:white;"/>
                </g>
            </g>
        </g>
    </g>
    <defs>
        <linearGradient id="_Linear1" x1="0" y1="0" x2="1" y2="0" gradientUnits="userSpaceOnUse" gradientTransform="matrix(6.07782e-14,992.583,-992.583,6.07782e-14,500,0)"><stop offset="0" style="stop-color:rgb(42,171,238);stop-opacity:1"/><stop offset="1" style="stop-color:rgb(34,158,217);stop-opacity:1"/></linearGradient>
    </defs>
</svg>
