<?xml version="1.0" encoding="UTF-8" standalone="no"?>
<!DOCTYPE svg PUBLIC "-//W3C//DTD SVG 1.1//EN" "http://www.w3.org/Graphics/SVG/1.1/DTD/svg11.dtd">
<svg width="100%" height="100%" viewBox="0 0 115 126" version="1.1" xmlns="http://www.w3.org/2000/svg" xmlns:xlink="http://www.w3.org/1999/xlink" xml:space="preserve" xmlns:serif="http://www.serif.com/" style="fill-rule:evenodd;clip-rule:evenodd;stroke-linejoin:round;stroke-miterlimit:2;">
    <g transform="matrix(1,0,0,1,-2633.37,-2916)">
        <g transform="matrix(0.646938,0,0,1.41383,1276.56,2039.25)">
            <g transform="matrix(0.180042,0,0,0.0823834,2088.82,620.128)">
                <path d="M1033.05,324.45C1032.86,186.55 925.46,73.53 799.45,32.75C642.97,-17.89 436.59,-10.55 287.17,59.95C106.07,145.41 49.18,332.61 47.06,519.31C45.32,672.81 60.64,1077.1 288.68,1079.98C458.12,1082.13 483.35,863.8 561.75,758.65C617.53,683.84 689.35,662.71 777.76,640.83C929.71,603.22 1033.27,483.3 1033.05,324.45Z" style="fill:white;fill-rule:nonzero;"/>
            </g>
        </g>
    </g>
</svg>
