<?xml version="1.0" encoding="UTF-8" standalone="no"?>
<!DOCTYPE svg PUBLIC "-//W3C//DTD SVG 1.1//EN" "http://www.w3.org/Graphics/SVG/1.1/DTD/svg11.dtd">
<svg width="100%" height="100%" viewBox="0 0 16 16" version="1.1" xmlns="http://www.w3.org/2000/svg" xmlns:xlink="http://www.w3.org/1999/xlink" xml:space="preserve" xmlns:serif="http://www.serif.com/" style="fill-rule:evenodd;clip-rule:evenodd;stroke-linejoin:round;stroke-miterlimit:2;">
    <path d="M16,8C16,12.389 12.389,16 8,16C3.611,16 0,12.389 0,8C-0,3.611 3.611,0 8,0C12.389,-0 16,3.611 16,8ZM8.287,5.906C7.509,6.23 5.953,6.9 3.621,7.916C3.243,8.066 3.044,8.214 3.026,8.358C2.996,8.601 3.301,8.697 3.716,8.828L3.891,8.883C4.299,9.016 4.849,9.171 5.134,9.177C5.394,9.183 5.683,9.077 6.002,8.857C8.181,7.386 9.306,6.643 9.376,6.627C9.426,6.615 9.496,6.601 9.542,6.643C9.589,6.684 9.584,6.763 9.579,6.784C9.549,6.913 8.352,8.025 7.733,8.601C7.54,8.781 7.403,8.908 7.375,8.937C7.313,9 7.251,9.062 7.187,9.123C6.807,9.489 6.523,9.763 7.202,10.211C7.529,10.427 7.791,10.604 8.052,10.782C8.336,10.976 8.62,11.169 8.988,11.411C9.081,11.471 9.171,11.536 9.258,11.598C9.589,11.834 9.888,12.046 10.255,12.012C10.469,11.992 10.69,11.792 10.802,11.192C11.067,9.775 11.588,6.706 11.708,5.441C11.715,5.336 11.711,5.23 11.695,5.126C11.686,5.042 11.645,4.964 11.581,4.909C11.49,4.846 11.382,4.814 11.271,4.816C10.971,4.821 10.508,4.982 8.287,5.906Z" style="fill:white;fill-rule:nonzero;"/>
</svg>
